<svg width="600" height="528" viewBox="0 0 600 528" fill="none" xmlns="http://www.w3.org/2000/svg">
<rect width="600" height="528" rx="16" fill="white"/>
<rect opacity="0.2" x="73" y="105" width="35" height="360" rx="10" fill="#A08CFB"/>
<rect x="73" y="271" width="35" height="194" rx="10" fill="url(#paint0_linear_293_657)"/>
<rect x="73" y="342" width="35" height="123" rx="10" fill="url(#paint1_linear_293_657)"/>
<rect opacity="0.2" x="283" y="105" width="35" height="360" rx="10" fill="#A08CFB"/>
<rect x="283" y="256" width="35" height="209" rx="10" fill="url(#paint2_linear_293_657)"/>
<rect x="283" y="332" width="35" height="133" rx="10" fill="url(#paint3_linear_293_657)"/>
<rect opacity="0.2" x="143" y="105" width="35" height="360" rx="10" fill="#A08CFB"/>
<rect x="143" y="225" width="35" height="240" rx="10" fill="url(#paint4_linear_293_657)"/>
<rect x="143" y="313" width="35" height="152" rx="10" fill="url(#paint5_linear_293_657)"/>
<rect opacity="0.2" x="353" y="105" width="35" height="360" rx="10" fill="#A08CFB"/>
<rect x="353" y="201" width="35" height="264" rx="10" fill="url(#paint6_linear_293_657)"/>
<rect x="353" y="298" width="35" height="167" rx="10" fill="url(#paint7_linear_293_657)"/>
<rect opacity="0.2" x="213" y="105" width="35" height="360" rx="10" fill="#A08CFB"/>
<rect x="213" y="313" width="35" height="152" rx="10" fill="url(#paint8_linear_293_657)"/>
<rect x="213" y="369" width="35" height="96" rx="10" fill="url(#paint9_linear_293_657)"/>
<rect opacity="0.2" x="423" y="105" width="35" height="360" rx="10" fill="#A08CFB"/>
<rect x="423" y="360" width="35" height="105" rx="10" fill="url(#paint10_linear_293_657)"/>
<rect x="423" y="398" width="35" height="67" rx="10" fill="url(#paint11_linear_293_657)"/>
<rect opacity="0.2" x="493" y="105" width="35" height="360" rx="10" fill="#A08CFB"/>
<rect x="493" y="271" width="35" height="194" rx="10" fill="url(#paint12_linear_293_657)"/>
<rect x="493" y="342" width="35" height="123" rx="10" fill="url(#paint13_linear_293_657)"/>
<path opacity="0.5" d="M78.3729 483.273H79.9709L82.7493 490.057H82.8516L85.63 483.273H87.228V492H85.9751V485.685H85.8942L83.3203 491.987H82.2805L79.7067 485.68H79.6257V492H78.3729V483.273ZM91.7972 492.132C91.1836 492.132 90.6481 491.991 90.1907 491.71C89.7333 491.429 89.3782 491.036 89.1254 490.53C88.8725 490.024 88.7461 489.433 88.7461 488.757C88.7461 488.078 88.8725 487.484 89.1254 486.976C89.3782 486.467 89.7333 486.072 90.1907 485.791C90.6481 485.51 91.1836 485.369 91.7972 485.369C92.4109 485.369 92.9464 485.51 93.4038 485.791C93.8612 486.072 94.2163 486.467 94.4691 486.976C94.7219 487.484 94.8484 488.078 94.8484 488.757C94.8484 489.433 94.7219 490.024 94.4691 490.53C94.2163 491.036 93.8612 491.429 93.4038 491.71C92.9464 491.991 92.4109 492.132 91.7972 492.132ZM91.8015 491.062C92.1992 491.062 92.5288 490.957 92.7901 490.747C93.0515 490.537 93.2447 490.257 93.3697 489.908C93.4975 489.558 93.5614 489.173 93.5614 488.753C93.5614 488.335 93.4975 487.952 93.3697 487.602C93.2447 487.25 93.0515 486.967 92.7901 486.754C92.5288 486.541 92.1992 486.435 91.8015 486.435C91.4009 486.435 91.0685 486.541 90.8043 486.754C90.543 486.967 90.3484 487.25 90.2205 487.602C90.0955 487.952 90.033 488.335 90.033 488.753C90.033 489.173 90.0955 489.558 90.2205 489.908C90.3484 490.257 90.543 490.537 90.8043 490.747C91.0685 490.957 91.4009 491.062 91.8015 491.062ZM97.5447 488.114V492H96.2706V485.455H97.4936V486.52H97.5746C97.7251 486.173 97.9609 485.895 98.282 485.685C98.6058 485.474 99.0135 485.369 99.505 485.369C99.951 485.369 100.342 485.463 100.677 485.651C101.012 485.835 101.272 486.111 101.457 486.477C101.641 486.844 101.734 487.297 101.734 487.837V492H100.46V487.99C100.46 487.516 100.336 487.145 100.089 486.878C99.8416 486.608 99.5021 486.473 99.0703 486.473C98.7749 486.473 98.5121 486.537 98.282 486.665C98.0547 486.793 97.8743 486.98 97.7408 487.227C97.6101 487.472 97.5447 487.767 97.5447 488.114Z" fill="#454459"/>
<path opacity="0.5" d="M364.187 492V483.273H369.599V484.406H365.504V487.065H369.211V488.195H365.504V492H364.187ZM371.034 492V485.455H372.266V486.494H372.334C372.453 486.142 372.664 485.865 372.965 485.663C373.269 485.459 373.612 485.357 373.996 485.357C374.075 485.357 374.169 485.359 374.277 485.365C374.388 485.371 374.475 485.378 374.537 485.386V486.605C374.486 486.591 374.395 486.575 374.264 486.558C374.134 486.538 374.003 486.528 373.872 486.528C373.571 486.528 373.303 486.592 373.067 486.72C372.834 486.845 372.649 487.02 372.513 487.244C372.377 487.466 372.308 487.719 372.308 488.003V492H371.034ZM375.64 492V485.455H376.914V492H375.64ZM376.283 484.445C376.062 484.445 375.871 484.371 375.712 484.223C375.556 484.072 375.478 483.893 375.478 483.686C375.478 483.476 375.556 483.297 375.712 483.149C375.871 482.999 376.062 482.923 376.283 482.923C376.505 482.923 376.694 482.999 376.85 483.149C377.009 483.297 377.089 483.476 377.089 483.686C377.089 483.893 377.009 484.072 376.85 484.223C376.694 484.371 376.505 484.445 376.283 484.445Z" fill="#454459"/>
<path opacity="0.5" d="M149.976 484.406V483.273H156.73V484.406H154.007V492H152.694V484.406H149.976ZM161.376 489.286V485.455H162.654V492H161.401V490.866H161.333C161.183 491.216 160.941 491.507 160.609 491.74C160.279 491.97 159.869 492.085 159.377 492.085C158.957 492.085 158.585 491.993 158.261 491.808C157.94 491.621 157.687 491.344 157.502 490.977C157.32 490.611 157.23 490.158 157.23 489.618V485.455H158.504V489.464C158.504 489.911 158.627 490.266 158.874 490.53C159.122 490.794 159.443 490.926 159.838 490.926C160.076 490.926 160.313 490.866 160.549 490.747C160.788 490.628 160.985 490.447 161.142 490.206C161.301 489.964 161.379 489.658 161.376 489.286ZM167.187 492.132C166.542 492.132 165.987 491.994 165.521 491.719C165.058 491.44 164.7 491.05 164.447 490.547C164.197 490.041 164.072 489.449 164.072 488.77C164.072 488.099 164.197 487.509 164.447 486.997C164.7 486.486 165.052 486.087 165.504 485.8C165.959 485.513 166.49 485.369 167.098 485.369C167.467 485.369 167.825 485.43 168.172 485.553C168.518 485.675 168.829 485.866 169.105 486.128C169.381 486.389 169.598 486.729 169.757 487.146C169.916 487.561 169.996 488.065 169.996 488.659V489.111H164.792V488.156H168.747C168.747 487.821 168.679 487.524 168.542 487.266C168.406 487.004 168.214 486.798 167.967 486.648C167.723 486.497 167.436 486.422 167.106 486.422C166.748 486.422 166.436 486.51 166.169 486.686C165.905 486.859 165.7 487.087 165.555 487.368C165.413 487.646 165.342 487.949 165.342 488.276V489.021C165.342 489.459 165.419 489.831 165.572 490.138C165.729 490.445 165.946 490.679 166.224 490.841C166.503 491 166.828 491.08 167.2 491.08C167.442 491.08 167.662 491.045 167.861 490.977C168.059 490.906 168.231 490.801 168.376 490.662C168.521 490.523 168.632 490.351 168.709 490.146L169.915 490.364C169.818 490.719 169.645 491.03 169.395 491.297C169.148 491.561 168.836 491.767 168.461 491.915C168.089 492.06 167.665 492.132 167.187 492.132Z" fill="#454459"/>
<path opacity="0.5" d="M219.847 492L217.427 483.273H218.812L220.512 490.031H220.593L222.362 483.273H223.734L225.502 490.036H225.583L227.279 483.273H228.668L226.244 492H224.918L223.082 485.463H223.013L221.177 492H219.847ZM231.943 492.132C231.298 492.132 230.743 491.994 230.277 491.719C229.814 491.44 229.456 491.05 229.203 490.547C228.953 490.041 228.828 489.449 228.828 488.77C228.828 488.099 228.953 487.509 229.203 486.997C229.456 486.486 229.808 486.087 230.26 485.8C230.714 485.513 231.246 485.369 231.854 485.369C232.223 485.369 232.581 485.43 232.928 485.553C233.274 485.675 233.585 485.866 233.861 486.128C234.136 486.389 234.354 486.729 234.513 487.146C234.672 487.561 234.751 488.065 234.751 488.659V489.111H229.548V488.156H233.503C233.503 487.821 233.435 487.524 233.298 487.266C233.162 487.004 232.97 486.798 232.723 486.648C232.479 486.497 232.192 486.422 231.862 486.422C231.504 486.422 231.192 486.51 230.925 486.686C230.661 486.859 230.456 487.087 230.311 487.368C230.169 487.646 230.098 487.949 230.098 488.276V489.021C230.098 489.459 230.175 489.831 230.328 490.138C230.484 490.445 230.702 490.679 230.98 490.841C231.259 491 231.584 491.08 231.956 491.08C232.197 491.08 232.418 491.045 232.616 490.977C232.815 490.906 232.987 490.801 233.132 490.662C233.277 490.523 233.388 490.351 233.464 490.146L234.67 490.364C234.574 490.719 234.401 491.03 234.151 491.297C233.903 491.561 233.592 491.767 233.217 491.915C232.845 492.06 232.42 492.132 231.943 492.132ZM238.615 492.128C238.087 492.128 237.615 491.993 237.201 491.723C236.789 491.45 236.465 491.062 236.229 490.56C235.996 490.054 235.88 489.447 235.88 488.74C235.88 488.033 235.998 487.428 236.233 486.925C236.472 486.422 236.799 486.037 237.213 485.77C237.628 485.503 238.098 485.369 238.624 485.369C239.03 485.369 239.357 485.438 239.604 485.574C239.854 485.707 240.047 485.864 240.184 486.043C240.323 486.222 240.431 486.379 240.507 486.516H240.584V483.273H241.858V492H240.614V490.982H240.507C240.431 491.121 240.32 491.28 240.175 491.459C240.033 491.638 239.837 491.794 239.587 491.928C239.337 492.061 239.013 492.128 238.615 492.128ZM238.897 491.041C239.263 491.041 239.573 490.945 239.826 490.751C240.081 490.555 240.275 490.284 240.405 489.938C240.539 489.591 240.605 489.187 240.605 488.727C240.605 488.273 240.54 487.875 240.409 487.534C240.279 487.193 240.087 486.928 239.834 486.737C239.581 486.547 239.269 486.452 238.897 486.452C238.513 486.452 238.194 486.551 237.938 486.75C237.682 486.949 237.489 487.22 237.358 487.564C237.23 487.908 237.167 488.295 237.167 488.727C237.167 489.165 237.232 489.558 237.363 489.908C237.493 490.257 237.686 490.534 237.942 490.739C238.201 490.94 238.519 491.041 238.897 491.041Z" fill="#454459"/>
<path opacity="0.5" d="M436.209 485.565C436.164 485.162 435.976 484.849 435.646 484.628C435.317 484.403 434.902 484.291 434.402 484.291C434.044 484.291 433.735 484.348 433.473 484.462C433.212 484.572 433.009 484.726 432.864 484.922C432.722 485.115 432.651 485.335 432.651 485.582C432.651 485.79 432.699 485.969 432.796 486.119C432.895 486.27 433.024 486.396 433.183 486.499C433.345 486.598 433.519 486.682 433.703 486.75C433.888 486.815 434.066 486.869 434.236 486.912L435.088 487.134C435.367 487.202 435.652 487.294 435.945 487.411C436.237 487.527 436.509 487.68 436.759 487.871C437.009 488.061 437.21 488.297 437.364 488.578C437.52 488.859 437.598 489.196 437.598 489.588C437.598 490.082 437.47 490.521 437.215 490.905C436.962 491.288 436.594 491.591 436.111 491.812C435.631 492.034 435.05 492.145 434.368 492.145C433.715 492.145 433.149 492.041 432.672 491.834C432.195 491.626 431.821 491.332 431.551 490.952C431.281 490.568 431.132 490.114 431.104 489.588H432.425C432.45 489.903 432.553 490.166 432.732 490.376C432.914 490.584 433.145 490.739 433.426 490.841C433.71 490.94 434.021 490.99 434.36 490.99C434.732 490.99 435.063 490.932 435.352 490.815C435.645 490.696 435.875 490.531 436.043 490.321C436.21 490.108 436.294 489.859 436.294 489.575C436.294 489.317 436.22 489.105 436.073 488.94C435.928 488.776 435.73 488.639 435.48 488.531C435.233 488.423 434.953 488.328 434.641 488.246L433.61 487.964C432.911 487.774 432.357 487.494 431.948 487.125C431.541 486.756 431.338 486.267 431.338 485.659C431.338 485.156 431.475 484.717 431.747 484.342C432.02 483.967 432.389 483.676 432.855 483.469C433.321 483.259 433.847 483.153 434.432 483.153C435.023 483.153 435.544 483.257 435.996 483.464C436.45 483.672 436.808 483.957 437.07 484.321C437.331 484.682 437.468 485.097 437.479 485.565H436.209ZM440.974 492.145C440.559 492.145 440.184 492.068 439.849 491.915C439.514 491.759 439.248 491.533 439.052 491.237C438.859 490.942 438.763 490.58 438.763 490.151C438.763 489.781 438.834 489.477 438.976 489.239C439.118 489 439.309 488.811 439.551 488.672C439.792 488.533 440.062 488.428 440.361 488.357C440.659 488.286 440.963 488.232 441.273 488.195C441.665 488.149 441.983 488.112 442.227 488.084C442.471 488.053 442.649 488.003 442.76 487.935C442.871 487.866 442.926 487.756 442.926 487.602V487.572C442.926 487.2 442.821 486.912 442.611 486.707C442.403 486.503 442.094 486.401 441.682 486.401C441.253 486.401 440.915 486.496 440.667 486.686C440.423 486.874 440.254 487.082 440.16 487.312L438.963 487.04C439.105 486.642 439.312 486.321 439.585 486.077C439.861 485.83 440.177 485.651 440.535 485.54C440.893 485.426 441.27 485.369 441.665 485.369C441.926 485.369 442.203 485.401 442.496 485.463C442.791 485.523 443.067 485.634 443.322 485.795C443.581 485.957 443.792 486.189 443.957 486.49C444.122 486.788 444.204 487.176 444.204 487.653V492H442.96V491.105H442.909C442.827 491.27 442.703 491.432 442.538 491.591C442.373 491.75 442.162 491.882 441.903 491.987C441.645 492.092 441.335 492.145 440.974 492.145ZM441.251 491.122C441.604 491.122 441.905 491.053 442.155 490.913C442.407 490.774 442.599 490.592 442.73 490.368C442.863 490.141 442.93 489.898 442.93 489.639V488.795C442.885 488.841 442.797 488.884 442.666 488.923C442.538 488.96 442.392 488.993 442.227 489.021C442.062 489.047 441.902 489.071 441.746 489.094C441.589 489.114 441.459 489.131 441.354 489.145C441.106 489.176 440.881 489.229 440.676 489.303C440.474 489.376 440.312 489.483 440.19 489.622C440.071 489.759 440.011 489.94 440.011 490.168C440.011 490.483 440.128 490.722 440.361 490.884C440.594 491.043 440.89 491.122 441.251 491.122ZM448.957 485.455V486.477H445.382V485.455H448.957ZM446.34 483.886H447.615V490.078C447.615 490.325 447.651 490.511 447.725 490.636C447.799 490.759 447.894 490.842 448.011 490.888C448.13 490.93 448.259 490.952 448.399 490.952C448.501 490.952 448.59 490.945 448.667 490.93C448.744 490.916 448.803 490.905 448.846 490.896L449.076 491.949C449.002 491.977 448.897 492.006 448.761 492.034C448.624 492.065 448.454 492.082 448.249 492.085C447.914 492.091 447.602 492.031 447.312 491.906C447.022 491.781 446.788 491.588 446.609 491.327C446.43 491.065 446.34 490.737 446.34 490.342V483.886Z" fill="#454459"/>
<path opacity="0.5" d="M289.942 484.406V483.273H296.697V484.406H293.974V492H292.661V484.406H289.942ZM299.361 488.114V492H298.087V483.273H299.344V486.52H299.425C299.578 486.168 299.813 485.888 300.128 485.68C300.444 485.473 300.855 485.369 301.364 485.369C301.813 485.369 302.205 485.462 302.54 485.646C302.878 485.831 303.14 486.107 303.324 486.473C303.512 486.837 303.605 487.291 303.605 487.837V492H302.331V487.99C302.331 487.51 302.208 487.138 301.961 486.874C301.713 486.607 301.37 486.473 300.929 486.473C300.628 486.473 300.358 486.537 300.12 486.665C299.884 486.793 299.698 486.98 299.561 487.227C299.428 487.472 299.361 487.767 299.361 488.114ZM309.452 489.286V485.455H310.73V492H309.478V490.866H309.409C309.259 491.216 309.017 491.507 308.685 491.74C308.355 491.97 307.945 492.085 307.453 492.085C307.033 492.085 306.661 491.993 306.337 491.808C306.016 491.621 305.763 491.344 305.578 490.977C305.397 490.611 305.306 490.158 305.306 489.618V485.455H306.58V489.464C306.58 489.911 306.703 490.266 306.951 490.53C307.198 490.794 307.519 490.926 307.914 490.926C308.152 490.926 308.39 490.866 308.625 490.747C308.864 490.628 309.061 490.447 309.218 490.206C309.377 489.964 309.455 489.658 309.452 489.286Z" fill="#454459"/>
<path opacity="0.5" d="M505.203 485.565C505.158 485.162 504.97 484.849 504.641 484.628C504.311 484.403 503.896 484.291 503.396 484.291C503.038 484.291 502.729 484.348 502.467 484.462C502.206 484.572 502.003 484.726 501.858 484.922C501.716 485.115 501.645 485.335 501.645 485.582C501.645 485.79 501.693 485.969 501.79 486.119C501.889 486.27 502.018 486.396 502.178 486.499C502.339 486.598 502.513 486.682 502.697 486.75C502.882 486.815 503.06 486.869 503.23 486.912L504.082 487.134C504.361 487.202 504.646 487.294 504.939 487.411C505.232 487.527 505.503 487.68 505.753 487.871C506.003 488.061 506.205 488.297 506.358 488.578C506.514 488.859 506.592 489.196 506.592 489.588C506.592 490.082 506.464 490.521 506.209 490.905C505.956 491.288 505.588 491.591 505.105 491.812C504.625 492.034 504.044 492.145 503.362 492.145C502.709 492.145 502.143 492.041 501.666 491.834C501.189 491.626 500.815 491.332 500.545 490.952C500.276 490.568 500.126 490.114 500.098 489.588H501.419C501.445 489.903 501.547 490.166 501.726 490.376C501.908 490.584 502.139 490.739 502.42 490.841C502.705 490.94 503.016 490.99 503.354 490.99C503.726 490.99 504.057 490.932 504.347 490.815C504.639 490.696 504.869 490.531 505.037 490.321C505.205 490.108 505.288 489.859 505.288 489.575C505.288 489.317 505.214 489.105 505.067 488.94C504.922 488.776 504.724 488.639 504.474 488.531C504.227 488.423 503.947 488.328 503.635 488.246L502.604 487.964C501.905 487.774 501.351 487.494 500.942 487.125C500.536 486.756 500.332 486.267 500.332 485.659C500.332 485.156 500.469 484.717 500.741 484.342C501.014 483.967 501.384 483.676 501.849 483.469C502.315 483.259 502.841 483.153 503.426 483.153C504.017 483.153 504.538 483.257 504.99 483.464C505.445 483.672 505.803 483.957 506.064 484.321C506.325 484.682 506.462 485.097 506.473 485.565H505.203ZM512.21 489.286V485.455H513.488V492H512.235V490.866H512.167C512.017 491.216 511.775 491.507 511.443 491.74C511.113 491.97 510.703 492.085 510.211 492.085C509.791 492.085 509.419 491.993 509.095 491.808C508.774 491.621 508.521 491.344 508.336 490.977C508.154 490.611 508.064 490.158 508.064 489.618V485.455H509.338V489.464C509.338 489.911 509.461 490.266 509.708 490.53C509.956 490.794 510.277 490.926 510.672 490.926C510.91 490.926 511.147 490.866 511.383 490.747C511.622 490.628 511.819 490.447 511.975 490.206C512.135 489.964 512.213 489.658 512.21 489.286ZM516.474 488.114V492H515.2V485.455H516.423V486.52H516.504C516.655 486.173 516.891 485.895 517.212 485.685C517.536 485.474 517.943 485.369 518.435 485.369C518.881 485.369 519.271 485.463 519.607 485.651C519.942 485.835 520.202 486.111 520.386 486.477C520.571 486.844 520.663 487.297 520.663 487.837V492H519.389V487.99C519.389 487.516 519.266 487.145 519.018 486.878C518.771 486.608 518.432 486.473 518 486.473C517.705 486.473 517.442 486.537 517.212 486.665C516.984 486.793 516.804 486.98 516.67 487.227C516.54 487.472 516.474 487.767 516.474 488.114Z" fill="#454459"/>
<defs>
<linearGradient id="paint0_linear_293_657" x1="90.5" y1="271" x2="90.5" y2="465" gradientUnits="userSpaceOnUse">
<stop stop-color="#B09FFF"/>
<stop offset="1" stop-color="#8D79F6"/>
</linearGradient>
<linearGradient id="paint1_linear_293_657" x1="90.5" y1="342" x2="90.5" y2="465" gradientUnits="userSpaceOnUse">
<stop stop-color="#FFD572"/>
<stop offset="1" stop-color="#FEBD38"/>
</linearGradient>
<linearGradient id="paint2_linear_293_657" x1="300.5" y1="256" x2="300.5" y2="465" gradientUnits="userSpaceOnUse">
<stop stop-color="#B09FFF"/>
<stop offset="1" stop-color="#8D79F6"/>
</linearGradient>
<linearGradient id="paint3_linear_293_657" x1="300.5" y1="332" x2="300.5" y2="465" gradientUnits="userSpaceOnUse">
<stop stop-color="#FFD572"/>
<stop offset="1" stop-color="#FEBD38"/>
</linearGradient>
<linearGradient id="paint4_linear_293_657" x1="160.5" y1="225" x2="160.5" y2="465" gradientUnits="userSpaceOnUse">
<stop stop-color="#B09FFF"/>
<stop offset="1" stop-color="#8D79F6"/>
</linearGradient>
<linearGradient id="paint5_linear_293_657" x1="160.5" y1="313" x2="160.5" y2="465" gradientUnits="userSpaceOnUse">
<stop stop-color="#FFD572"/>
<stop offset="1" stop-color="#FEBD38"/>
</linearGradient>
<linearGradient id="paint6_linear_293_657" x1="370.5" y1="201" x2="370.5" y2="465" gradientUnits="userSpaceOnUse">
<stop stop-color="#B09FFF"/>
<stop offset="1" stop-color="#8D79F6"/>
</linearGradient>
<linearGradient id="paint7_linear_293_657" x1="370.5" y1="298" x2="370.5" y2="465" gradientUnits="userSpaceOnUse">
<stop stop-color="#FFD572"/>
<stop offset="1" stop-color="#FEBD38"/>
</linearGradient>
<linearGradient id="paint8_linear_293_657" x1="230.5" y1="313" x2="230.5" y2="465" gradientUnits="userSpaceOnUse">
<stop stop-color="#B09FFF"/>
<stop offset="1" stop-color="#8D79F6"/>
</linearGradient>
<linearGradient id="paint9_linear_293_657" x1="230.5" y1="369" x2="230.5" y2="465" gradientUnits="userSpaceOnUse">
<stop stop-color="#FFD572"/>
<stop offset="1" stop-color="#FEBD38"/>
</linearGradient>
<linearGradient id="paint10_linear_293_657" x1="440.5" y1="360" x2="440.5" y2="465" gradientUnits="userSpaceOnUse">
<stop stop-color="#B09FFF"/>
<stop offset="1" stop-color="#8D79F6"/>
</linearGradient>
<linearGradient id="paint11_linear_293_657" x1="440.5" y1="398" x2="440.5" y2="465" gradientUnits="userSpaceOnUse">
<stop stop-color="#FFD572"/>
<stop offset="1" stop-color="#FEBD38"/>
</linearGradient>
<linearGradient id="paint12_linear_293_657" x1="510.5" y1="271" x2="510.5" y2="465" gradientUnits="userSpaceOnUse">
<stop stop-color="#B09FFF"/>
<stop offset="1" stop-color="#8D79F6"/>
</linearGradient>
<linearGradient id="paint13_linear_293_657" x1="510.5" y1="342" x2="510.5" y2="465" gradientUnits="userSpaceOnUse">
<stop stop-color="#FFD572"/>
<stop offset="1" stop-color="#FEBD38"/>
</linearGradient>
</defs>
</svg>
