<svg width="398" height="398" viewBox="0 0 398 398" fill="none" xmlns="http://www.w3.org/2000/svg">
<path d="M374.12 199C374.12 158.564 360.126 119.373 334.515 88.0821C308.903 56.7909 273.252 35.3272 233.614 27.3347L199 199H374.12Z" fill="url(#paint0_linear_287_381)"/>
<path d="M336.977 281.905C351.097 258.405 358.981 231.689 359.882 204.288L199 199L336.977 281.905Z" fill="url(#paint1_linear_287_381)"/>
<path d="M162.548 386.53C199.782 393.768 238.328 389.757 273.275 375.01C308.222 360.263 337.988 335.446 358.78 303.721L199 199L162.548 386.53Z" fill="url(#paint2_linear_287_381)"/>
<path d="M66.8353 313.889C91.3771 342.121 124.315 361.753 160.823 369.908L199 199L66.8353 313.889Z" fill="url(#paint3_linear_287_381)"/>
<path d="M233.556 3.02326C193.611 -4.02007 152.468 1.31092 115.638 18.3021C78.8072 35.2933 48.0483 63.1333 27.481 98.0929C6.91378 133.053 -2.47954 173.462 0.559282 213.909C3.59811 254.356 18.924 292.908 44.4839 324.403L199 199L233.556 3.02326Z" fill="url(#paint4_linear_287_381)"/>
<g filter="url(#filter0_d_287_381)">
<circle cx="199" cy="199" r="119.4" fill="white"/>
</g>
<circle opacity="0.05" cx="199" cy="199" r="105.133" stroke="#454459" stroke-width="2"/>
<path d="M139.119 208.738V203.42L151.545 191.914C152.602 190.891 153.488 189.971 154.204 189.153C154.931 188.334 155.483 187.533 155.858 186.749C156.233 185.954 156.42 185.096 156.42 184.175C156.42 183.153 156.187 182.272 155.721 181.533C155.255 180.783 154.619 180.209 153.812 179.812C153.005 179.403 152.091 179.198 151.068 179.198C150 179.198 149.068 179.414 148.272 179.846C147.477 180.278 146.863 180.897 146.431 181.704C146 182.511 145.784 183.471 145.784 184.584H138.778C138.778 182.3 139.295 180.317 140.329 178.636C141.363 176.954 142.812 175.653 144.676 174.732C146.539 173.812 148.687 173.351 151.119 173.351C153.619 173.351 155.795 173.795 157.647 174.681C159.511 175.556 160.96 176.772 161.994 178.329C163.028 179.886 163.545 181.67 163.545 183.681C163.545 184.999 163.284 186.3 162.761 187.584C162.25 188.868 161.335 190.295 160.017 191.863C158.699 193.42 156.841 195.289 154.443 197.471L149.346 202.465V202.704H164.005V208.738H139.119ZM183.041 209.505C180.109 209.493 177.586 208.772 175.473 207.34C173.37 205.908 171.751 203.834 170.615 201.118C169.49 198.403 168.933 195.136 168.944 191.317C168.944 187.511 169.507 184.266 170.632 181.584C171.768 178.903 173.387 176.863 175.49 175.465C177.603 174.056 180.12 173.351 183.041 173.351C185.961 173.351 188.473 174.056 190.575 175.465C192.689 176.874 194.314 178.92 195.45 181.601C196.586 184.272 197.149 187.511 197.137 191.317C197.137 195.147 196.569 198.42 195.433 201.136C194.308 203.851 192.694 205.925 190.592 207.357C188.49 208.789 185.973 209.505 183.041 209.505ZM183.041 203.386C185.041 203.386 186.637 202.38 187.831 200.368C189.024 198.357 189.615 195.34 189.603 191.317C189.603 188.67 189.331 186.465 188.785 184.704C188.251 182.942 187.49 181.618 186.501 180.732C185.524 179.846 184.37 179.403 183.041 179.403C181.052 179.403 179.461 180.397 178.268 182.386C177.075 184.374 176.473 187.351 176.461 191.317C176.461 193.999 176.728 196.238 177.262 198.033C177.808 199.817 178.575 201.158 179.564 202.056C180.552 202.942 181.711 203.386 183.041 203.386ZM202.4 208.738V203.42L214.826 191.914C215.883 190.891 216.77 189.971 217.485 189.153C218.213 188.334 218.764 187.533 219.139 186.749C219.514 185.954 219.701 185.096 219.701 184.175C219.701 183.153 219.468 182.272 219.002 181.533C218.537 180.783 217.9 180.209 217.093 179.812C216.287 179.403 215.372 179.198 214.349 179.198C213.281 179.198 212.349 179.414 211.554 179.846C210.758 180.278 210.145 180.897 209.713 181.704C209.281 182.511 209.065 183.471 209.065 184.584H202.059C202.059 182.3 202.576 180.317 203.61 178.636C204.645 176.954 206.093 175.653 207.957 174.732C209.821 173.812 211.968 173.351 214.4 173.351C216.9 173.351 219.076 173.795 220.929 174.681C222.792 175.556 224.241 176.772 225.275 178.329C226.309 179.886 226.826 181.67 226.826 183.681C226.826 184.999 226.565 186.3 226.042 187.584C225.531 188.868 224.616 190.295 223.298 191.863C221.98 193.42 220.122 195.289 217.724 197.471L212.627 202.465V202.704H227.287V208.738H202.4ZM232.635 208.738V203.42L245.061 191.914C246.118 190.891 247.004 189.971 247.72 189.153C248.447 188.334 248.998 187.533 249.373 186.749C249.748 185.954 249.936 185.096 249.936 184.175C249.936 183.153 249.703 182.272 249.237 181.533C248.771 180.783 248.135 180.209 247.328 179.812C246.521 179.403 245.606 179.198 244.583 179.198C243.515 179.198 242.583 179.414 241.788 179.846C240.993 180.278 240.379 180.897 239.947 181.704C239.515 182.511 239.299 183.471 239.299 184.584H232.294C232.294 182.3 232.811 180.317 233.845 178.636C234.879 176.954 236.328 175.653 238.191 174.732C240.055 173.812 242.203 173.351 244.635 173.351C247.135 173.351 249.311 173.795 251.163 174.681C253.027 175.556 254.476 176.772 255.51 178.329C256.544 179.886 257.061 181.67 257.061 183.681C257.061 184.999 256.799 186.3 256.277 187.584C255.765 188.868 254.851 190.295 253.532 191.863C252.214 193.42 250.356 195.289 247.958 197.471L242.862 202.465V202.704H257.521V208.738H232.635Z" fill="#454459"/>
<path opacity="0.7" d="M141.373 226.573H140.172C140.082 226.126 139.92 225.712 139.686 225.333C139.456 224.95 139.166 224.615 138.816 224.33C138.467 224.044 138.071 223.823 137.628 223.665C137.184 223.507 136.705 223.428 136.189 223.428C135.363 223.428 134.608 223.644 133.927 224.074C133.249 224.504 132.706 225.137 132.297 225.972C131.892 226.803 131.689 227.822 131.689 229.028C131.689 230.242 131.892 231.265 132.297 232.096C132.706 232.927 133.249 233.558 133.927 233.988C134.608 234.414 135.363 234.627 136.189 234.627C136.705 234.627 137.184 234.548 137.628 234.391C138.071 234.233 138.467 234.014 138.816 233.732C139.166 233.447 139.456 233.112 139.686 232.729C139.92 232.345 140.082 231.93 140.172 231.482H141.373C141.267 232.083 141.066 232.644 140.772 233.163C140.483 233.679 140.112 234.131 139.66 234.519C139.213 234.906 138.697 235.209 138.113 235.426C137.53 235.644 136.888 235.752 136.189 235.752C135.09 235.752 134.114 235.477 133.262 234.928C132.41 234.374 131.741 233.594 131.255 232.588C130.773 231.582 130.532 230.396 130.532 229.028C130.532 227.66 130.773 226.473 131.255 225.467C131.741 224.462 132.41 223.684 133.262 223.134C134.114 222.58 135.09 222.303 136.189 222.303C136.888 222.303 137.53 222.412 138.113 222.629C138.697 222.842 139.213 223.145 139.66 223.537C140.112 223.925 140.483 224.377 140.772 224.892C141.066 225.408 141.267 225.968 141.373 226.573ZM146.687 235.797C146.094 235.797 145.553 235.682 145.063 235.452C144.573 235.217 144.183 234.881 143.893 234.442C143.604 233.999 143.459 233.462 143.459 232.831C143.459 232.345 143.55 231.936 143.734 231.604C143.917 231.271 144.177 230.999 144.513 230.786C144.85 230.573 145.248 230.404 145.709 230.281C146.169 230.157 146.676 230.061 147.23 229.993C147.78 229.925 148.244 229.865 148.623 229.814C149.007 229.763 149.299 229.682 149.499 229.571C149.699 229.46 149.8 229.281 149.8 229.034V228.804C149.8 228.135 149.599 227.609 149.199 227.225C148.802 226.837 148.231 226.644 147.486 226.644C146.778 226.644 146.201 226.799 145.753 227.11C145.31 227.421 144.999 227.788 144.82 228.21L143.74 227.82C143.962 227.283 144.268 226.854 144.66 226.535C145.052 226.211 145.491 225.979 145.977 225.838C146.463 225.693 146.955 225.621 147.454 225.621C147.829 225.621 148.219 225.67 148.623 225.768C149.033 225.866 149.412 226.036 149.761 226.279C150.111 226.518 150.394 226.852 150.611 227.283C150.829 227.709 150.937 228.25 150.937 228.906V235.573H149.8V234.02H149.729C149.593 234.31 149.391 234.591 149.122 234.864C148.854 235.136 148.517 235.36 148.112 235.535C147.707 235.71 147.232 235.797 146.687 235.797ZM146.84 234.755C147.445 234.755 147.969 234.621 148.413 234.352C148.856 234.084 149.197 233.728 149.435 233.285C149.678 232.837 149.8 232.345 149.8 231.808V230.389C149.714 230.47 149.572 230.543 149.371 230.607C149.175 230.671 148.947 230.728 148.687 230.779C148.432 230.826 148.176 230.867 147.92 230.901C147.665 230.935 147.435 230.965 147.23 230.99C146.676 231.058 146.203 231.165 145.811 231.31C145.419 231.455 145.119 231.655 144.91 231.911C144.701 232.162 144.597 232.486 144.597 232.882C144.597 233.479 144.81 233.941 145.236 234.269C145.662 234.593 146.197 234.755 146.84 234.755ZM153.964 235.573V225.755H155.07V227.264H155.153C155.349 226.769 155.69 226.371 156.176 226.068C156.666 225.761 157.22 225.608 157.838 225.608C157.931 225.608 158.036 225.61 158.151 225.614C158.266 225.619 158.362 225.623 158.438 225.627V226.784C158.387 226.776 158.298 226.763 158.17 226.746C158.042 226.729 157.904 226.72 157.755 226.72C157.243 226.72 156.787 226.829 156.387 227.046C155.99 227.259 155.677 227.555 155.447 227.935C155.217 228.314 155.102 228.747 155.102 229.232V235.573H153.964ZM160.617 235.573V222.482H161.761V227.628H161.863C161.991 227.334 162.174 227.031 162.413 226.72C162.656 226.409 162.973 226.149 163.365 225.94C163.761 225.727 164.26 225.621 164.861 225.621C165.666 225.621 166.374 225.834 166.983 226.26C167.592 226.682 168.068 227.274 168.408 228.037C168.749 228.796 168.92 229.68 168.92 230.69C168.92 231.704 168.749 232.592 168.408 233.355C168.072 234.118 167.599 234.712 166.989 235.139C166.384 235.565 165.681 235.778 164.88 235.778C164.283 235.778 163.785 235.671 163.384 235.458C162.988 235.245 162.668 234.983 162.426 234.672C162.183 234.357 161.995 234.05 161.863 233.752H161.722V235.573H160.617ZM161.742 230.671C161.742 231.463 161.859 232.166 162.093 232.78C162.332 233.389 162.673 233.869 163.116 234.218C163.563 234.563 164.104 234.736 164.739 234.736C165.391 234.736 165.943 234.557 166.395 234.199C166.847 233.837 167.19 233.349 167.424 232.735C167.658 232.122 167.776 231.433 167.776 230.671C167.776 229.916 167.658 229.237 167.424 228.631C167.194 228.026 166.853 227.547 166.401 227.193C165.95 226.835 165.396 226.656 164.739 226.656C164.1 226.656 163.557 226.829 163.109 227.174C162.666 227.515 162.328 227.988 162.093 228.593C161.859 229.194 161.742 229.886 161.742 230.671ZM175.235 235.778C174.387 235.778 173.637 235.563 172.985 235.132C172.337 234.702 171.83 234.107 171.464 233.349C171.097 232.586 170.914 231.706 170.914 230.709C170.914 229.703 171.097 228.819 171.464 228.056C171.83 227.289 172.337 226.693 172.985 226.266C173.637 225.836 174.387 225.621 175.235 225.621C176.083 225.621 176.831 225.836 177.479 226.266C178.127 226.697 178.634 227.293 179 228.056C179.371 228.819 179.556 229.703 179.556 230.709C179.556 231.706 179.373 232.586 179.006 233.349C178.64 234.107 178.131 234.702 177.479 235.132C176.831 235.563 176.083 235.778 175.235 235.778ZM175.235 234.736C175.917 234.736 176.494 234.553 176.967 234.186C177.44 233.82 177.798 233.332 178.041 232.722C178.288 232.113 178.412 231.442 178.412 230.709C178.412 229.976 178.288 229.303 178.041 228.689C177.798 228.075 177.44 227.583 176.967 227.212C176.494 226.842 175.917 226.656 175.235 226.656C174.558 226.656 173.98 226.842 173.503 227.212C173.03 227.583 172.67 228.075 172.423 228.689C172.18 229.303 172.058 229.976 172.058 230.709C172.058 231.442 172.18 232.113 172.423 232.722C172.67 233.332 173.03 233.82 173.503 234.186C173.976 234.553 174.553 234.736 175.235 234.736ZM183.192 229.437V235.573H182.054V225.755H183.16V227.296H183.262C183.492 226.793 183.85 226.39 184.336 226.087C184.826 225.781 185.431 225.627 186.151 225.627C186.812 225.627 187.391 225.766 187.89 226.043C188.393 226.315 188.783 226.718 189.06 227.251C189.341 227.783 189.481 228.438 189.481 229.213V235.573H188.344V229.283C188.344 228.478 188.118 227.841 187.666 227.372C187.219 226.903 186.618 226.669 185.864 226.669C185.348 226.669 184.89 226.78 184.489 227.002C184.089 227.223 183.771 227.543 183.537 227.96C183.307 228.374 183.192 228.866 183.192 229.437ZM201.51 235.778C200.593 235.778 199.801 235.565 199.132 235.139C198.463 234.708 197.945 234.114 197.579 233.355C197.216 232.592 197.035 231.715 197.035 230.722C197.035 229.733 197.216 228.855 197.579 228.088C197.945 227.317 198.45 226.714 199.093 226.279C199.741 225.84 200.489 225.621 201.337 225.621C201.87 225.621 202.383 225.719 202.878 225.915C203.372 226.107 203.815 226.403 204.207 226.803C204.603 227.2 204.917 227.7 205.147 228.305C205.377 228.906 205.492 229.618 205.492 230.44V231.003H197.821V229.999H204.329C204.329 229.369 204.201 228.802 203.945 228.299C203.694 227.792 203.342 227.391 202.89 227.097C202.443 226.803 201.925 226.656 201.337 226.656C200.715 226.656 200.167 226.823 199.694 227.155C199.221 227.487 198.851 227.926 198.582 228.472C198.318 229.017 198.184 229.614 198.179 230.261V230.862C198.179 231.642 198.314 232.324 198.582 232.908C198.855 233.487 199.241 233.937 199.739 234.256C200.238 234.576 200.828 234.736 201.51 234.736C201.974 234.736 202.381 234.663 202.731 234.519C203.084 234.374 203.38 234.18 203.619 233.937C203.862 233.69 204.045 233.419 204.169 233.125L205.249 233.477C205.1 233.89 204.855 234.271 204.514 234.621C204.177 234.97 203.755 235.252 203.248 235.465C202.745 235.673 202.166 235.778 201.51 235.778ZM207.999 235.573V225.755H209.105V227.264H209.207C209.403 226.756 209.729 226.358 210.185 226.068C210.646 225.774 211.197 225.627 211.841 225.627C212.518 225.627 213.074 225.787 213.509 226.107C213.948 226.422 214.276 226.857 214.494 227.411H214.577C214.798 226.865 215.158 226.433 215.657 226.113C216.16 225.789 216.769 225.627 217.485 225.627C218.397 225.627 219.117 225.915 219.646 226.49C220.174 227.061 220.438 227.896 220.438 228.996V235.573H219.3V228.996C219.3 228.22 219.102 227.639 218.706 227.251C218.31 226.863 217.788 226.669 217.14 226.669C216.39 226.669 215.812 226.899 215.408 227.359C215.003 227.82 214.8 228.403 214.8 229.111V235.573H213.637V228.894C213.637 228.229 213.452 227.692 213.081 227.283C212.71 226.874 212.188 226.669 211.515 226.669C211.063 226.669 210.656 226.78 210.294 227.002C209.936 227.223 209.653 227.532 209.444 227.928C209.239 228.32 209.137 228.772 209.137 229.283V235.573H207.999ZM223.463 235.573V225.755H224.607V235.573H223.463ZM224.045 224.068C223.81 224.068 223.61 223.989 223.444 223.831C223.278 223.669 223.195 223.475 223.195 223.249C223.195 223.024 223.278 222.832 223.444 222.674C223.61 222.512 223.81 222.431 224.045 222.431C224.279 222.431 224.479 222.512 224.646 222.674C224.812 222.832 224.895 223.024 224.895 223.249C224.895 223.475 224.812 223.669 224.646 223.831C224.479 223.989 224.279 224.068 224.045 224.068ZM234.213 227.909L233.171 228.203C233.069 227.909 232.924 227.643 232.736 227.404C232.549 227.166 232.304 226.976 232.001 226.835C231.703 226.695 231.332 226.624 230.889 226.624C230.224 226.624 229.679 226.782 229.253 227.097C228.827 227.413 228.614 227.82 228.614 228.318C228.614 228.74 228.758 229.083 229.048 229.347C229.342 229.607 229.794 229.814 230.403 229.967L231.886 230.332C232.709 230.532 233.324 230.85 233.734 231.284C234.147 231.719 234.354 232.264 234.354 232.921C234.354 233.475 234.2 233.967 233.893 234.397C233.587 234.828 233.158 235.166 232.609 235.413C232.063 235.656 231.43 235.778 230.71 235.778C229.751 235.778 228.961 235.563 228.339 235.132C227.717 234.698 227.318 234.071 227.143 233.253L228.236 232.984C228.377 233.568 228.652 234.009 229.061 234.308C229.474 234.606 230.018 234.755 230.691 234.755C231.445 234.755 232.048 234.587 232.5 234.25C232.952 233.909 233.177 233.483 233.177 232.972C233.177 232.575 233.045 232.243 232.781 231.975C232.517 231.702 232.116 231.502 231.579 231.374L229.975 230.99C229.123 230.786 228.492 230.462 228.083 230.019C227.674 229.575 227.469 229.026 227.469 228.369C227.469 227.828 227.616 227.353 227.91 226.944C228.204 226.531 228.609 226.207 229.125 225.972C229.641 225.738 230.229 225.621 230.889 225.621C231.788 225.621 232.506 225.825 233.043 226.234C233.584 226.639 233.974 227.198 234.213 227.909ZM243.441 227.909L242.4 228.203C242.297 227.909 242.152 227.643 241.965 227.404C241.777 227.166 241.532 226.976 241.23 226.835C240.932 226.695 240.561 226.624 240.118 226.624C239.453 226.624 238.907 226.782 238.481 227.097C238.055 227.413 237.842 227.82 237.842 228.318C237.842 228.74 237.987 229.083 238.277 229.347C238.571 229.607 239.022 229.814 239.632 229.967L241.115 230.332C241.937 230.532 242.553 230.85 242.962 231.284C243.375 231.719 243.582 232.264 243.582 232.921C243.582 233.475 243.429 233.967 243.122 234.397C242.815 234.828 242.387 235.166 241.837 235.413C241.292 235.656 240.659 235.778 239.939 235.778C238.98 235.778 238.189 235.563 237.567 235.132C236.945 234.698 236.547 234.071 236.372 233.253L237.465 232.984C237.606 233.568 237.88 234.009 238.29 234.308C238.703 234.606 239.246 234.755 239.919 234.755C240.674 234.755 241.277 234.587 241.728 234.25C242.18 233.909 242.406 233.483 242.406 232.972C242.406 232.575 242.274 232.243 242.01 231.975C241.745 231.702 241.345 231.502 240.808 231.374L239.204 230.99C238.351 230.786 237.721 230.462 237.312 230.019C236.902 229.575 236.698 229.026 236.698 228.369C236.698 227.828 236.845 227.353 237.139 226.944C237.433 226.531 237.838 226.207 238.353 225.972C238.869 225.738 239.457 225.621 240.118 225.621C241.017 225.621 241.735 225.825 242.272 226.234C242.813 226.639 243.203 227.198 243.441 227.909ZM246.086 235.573V225.755H247.23V235.573H246.086ZM246.668 224.068C246.434 224.068 246.233 223.989 246.067 223.831C245.901 223.669 245.818 223.475 245.818 223.249C245.818 223.024 245.901 222.832 246.067 222.674C246.233 222.512 246.434 222.431 246.668 222.431C246.902 222.431 247.103 222.512 247.269 222.674C247.435 222.832 247.518 223.024 247.518 223.249C247.518 223.475 247.435 223.669 247.269 223.831C247.103 223.989 246.902 224.068 246.668 224.068ZM254.055 235.778C253.207 235.778 252.457 235.563 251.805 235.132C251.158 234.702 250.651 234.107 250.284 233.349C249.918 232.586 249.734 231.706 249.734 230.709C249.734 229.703 249.918 228.819 250.284 228.056C250.651 227.289 251.158 226.693 251.805 226.266C252.457 225.836 253.207 225.621 254.055 225.621C254.903 225.621 255.651 225.836 256.299 226.266C256.947 226.697 257.454 227.293 257.82 228.056C258.191 228.819 258.377 229.703 258.377 230.709C258.377 231.706 258.193 232.586 257.827 233.349C257.46 234.107 256.951 234.702 256.299 235.132C255.651 235.563 254.903 235.778 254.055 235.778ZM254.055 234.736C254.737 234.736 255.315 234.553 255.788 234.186C256.261 233.82 256.619 233.332 256.862 232.722C257.109 232.113 257.232 231.442 257.232 230.709C257.232 229.976 257.109 229.303 256.862 228.689C256.619 228.075 256.261 227.583 255.788 227.212C255.315 226.842 254.737 226.656 254.055 226.656C253.378 226.656 252.801 226.842 252.323 227.212C251.85 227.583 251.49 228.075 251.243 228.689C251 229.303 250.879 229.976 250.879 230.709C250.879 231.442 251 232.113 251.243 232.722C251.49 233.332 251.85 233.82 252.323 234.186C252.796 234.553 253.374 234.736 254.055 234.736ZM262.012 229.437V235.573H260.874V225.755H261.98V227.296H262.082C262.312 226.793 262.67 226.39 263.156 226.087C263.646 225.781 264.251 225.627 264.972 225.627C265.632 225.627 266.212 225.766 266.71 226.043C267.213 226.315 267.603 226.718 267.88 227.251C268.161 227.783 268.302 228.438 268.302 229.213V235.573H267.164V229.283C267.164 228.478 266.938 227.841 266.486 227.372C266.039 226.903 265.438 226.669 264.684 226.669C264.168 226.669 263.71 226.78 263.31 227.002C262.909 227.223 262.592 227.543 262.357 227.96C262.127 228.374 262.012 228.866 262.012 229.437Z" fill="#454459"/>
<defs>
<filter id="filter0_d_287_381" x="54.6" y="59.6001" width="288.8" height="288.8" filterUnits="userSpaceOnUse" color-interpolation-filters="sRGB">
<feFlood flood-opacity="0" result="BackgroundImageFix"/>
<feColorMatrix in="SourceAlpha" type="matrix" values="0 0 0 0 0 0 0 0 0 0 0 0 0 0 0 0 0 0 127 0" result="hardAlpha"/>
<feOffset dy="5"/>
<feGaussianBlur stdDeviation="12.5"/>
<feColorMatrix type="matrix" values="0 0 0 0 0 0 0 0 0 0 0 0 0 0 0 0 0 0 0.1 0"/>
<feBlend mode="normal" in2="BackgroundImageFix" result="effect1_dropShadow_287_381"/>
<feBlend mode="normal" in="SourceGraphic" in2="effect1_dropShadow_287_381" result="shape"/>
</filter>
<linearGradient id="paint0_linear_287_381" x1="199" y1="23.8799" x2="199" y2="374.12" gradientUnits="userSpaceOnUse">
<stop stop-color="#E4FF7A"/>
<stop offset="1" stop-color="#4FBAF0"/>
</linearGradient>
<linearGradient id="paint1_linear_287_381" x1="199" y1="38.031" x2="199" y2="359.969" gradientUnits="userSpaceOnUse">
<stop stop-color="#FE6C6C"/>
<stop offset="1" stop-color="#FE464B"/>
</linearGradient>
<linearGradient id="paint2_linear_287_381" x1="199" y1="7.95996" x2="199" y2="390.04" gradientUnits="userSpaceOnUse">
<stop stop-color="#FD95D3"/>
<stop offset="1" stop-color="#17B657"/>
</linearGradient>
<linearGradient id="paint3_linear_287_381" x1="199" y1="23.8799" x2="199" y2="374.12" gradientUnits="userSpaceOnUse">
<stop stop-color="#99FFA3"/>
<stop offset="1" stop-color="#68EE76"/>
</linearGradient>
<linearGradient id="paint4_linear_287_381" x1="199" y1="0" x2="199" y2="398" gradientUnits="userSpaceOnUse">
<stop stop-color="#FF7272"/>
<stop offset="1" stop-color="#FEBD38"/>
</linearGradient>
</defs>
</svg>
