<svg width="548" height="566" viewBox="0 0 548 566" fill="none" xmlns="http://www.w3.org/2000/svg">
<rect width="548" height="566" rx="16" fill="white"/>
<path d="M498 300C498 254.281 482.178 209.97 453.22 174.59C424.262 139.211 383.953 114.943 339.136 105.906L300 300H498Z" fill="url(#paint0_linear_293_641)"/>
<path d="M456.004 393.737C471.969 367.167 480.883 336.96 481.902 305.979L300 300L456.004 393.737Z" fill="url(#paint1_linear_293_641)"/>
<path d="M258.785 512.031C300.884 520.215 344.466 515.68 383.979 499.006C423.492 482.332 457.147 454.273 480.656 418.404L300 300L258.785 512.031Z" fill="url(#paint2_linear_293_641)"/>
<path d="M150.567 429.9C178.316 461.82 215.557 484.017 256.835 493.238L300 300L150.567 429.9Z" fill="url(#paint3_linear_293_641)"/>
<path d="M339.071 78.4183C293.907 70.4547 247.389 76.4822 205.746 95.6933C164.104 114.905 129.326 146.382 106.072 185.909C82.8171 225.436 72.1965 271.126 75.6324 316.857C79.0682 362.588 96.3964 406.178 125.296 441.787L300 300L339.071 78.4183Z" fill="url(#paint4_linear_293_641)"/>
<g filter="url(#filter0_d_293_641)">
<circle cx="300" cy="300" r="135" fill="white"/>
</g>
<circle opacity="0.05" cx="300" cy="300" r="119" stroke="#454459" stroke-width="2"/>
<path d="M255.45 298.864V293.051L270.023 270.091H275.035V278.136H272.069L262.881 292.676V292.949H283.592V298.864H255.45ZM272.205 305V297.091L272.342 294.517V270.091H279.262V305H272.205ZM301.259 305.477C298.85 305.477 296.702 305.034 294.816 304.148C292.941 303.261 291.452 302.04 290.35 300.483C289.248 298.926 288.674 297.142 288.629 295.131H295.788C295.867 296.483 296.435 297.58 297.492 298.42C298.549 299.261 299.805 299.682 301.259 299.682C302.418 299.682 303.441 299.426 304.327 298.915C305.225 298.392 305.924 297.67 306.424 296.75C306.935 295.818 307.191 294.75 307.191 293.545C307.191 292.318 306.93 291.239 306.407 290.307C305.896 289.375 305.185 288.648 304.276 288.125C303.367 287.602 302.327 287.335 301.157 287.324C300.134 287.324 299.14 287.534 298.174 287.955C297.219 288.375 296.475 288.949 295.941 289.676L289.379 288.5L291.032 270.091H312.373V276.125H297.117L296.214 284.869H296.418C297.032 284.006 297.958 283.29 299.197 282.722C300.435 282.153 301.822 281.869 303.356 281.869C305.458 281.869 307.333 282.364 308.981 283.352C310.629 284.341 311.93 285.699 312.884 287.426C313.839 289.142 314.31 291.119 314.299 293.358C314.31 295.71 313.765 297.801 312.663 299.631C311.572 301.449 310.043 302.881 308.077 303.926C306.123 304.96 303.85 305.477 301.259 305.477ZM319.447 305V299.682L331.873 288.176C332.93 287.153 333.816 286.233 334.532 285.415C335.259 284.597 335.81 283.795 336.185 283.011C336.56 282.216 336.748 281.358 336.748 280.438C336.748 279.415 336.515 278.534 336.049 277.795C335.583 277.045 334.947 276.472 334.14 276.074C333.333 275.665 332.418 275.46 331.396 275.46C330.327 275.46 329.396 275.676 328.6 276.108C327.805 276.54 327.191 277.159 326.759 277.966C326.327 278.773 326.112 279.733 326.112 280.847H319.106C319.106 278.562 319.623 276.58 320.657 274.898C321.691 273.216 323.14 271.915 325.004 270.994C326.867 270.074 329.015 269.614 331.447 269.614C333.947 269.614 336.123 270.057 337.975 270.943C339.839 271.818 341.288 273.034 342.322 274.591C343.356 276.148 343.873 277.932 343.873 279.943C343.873 281.261 343.612 282.562 343.089 283.847C342.577 285.131 341.663 286.557 340.344 288.125C339.026 289.682 337.168 291.551 334.771 293.733L329.674 298.727V298.966H344.333V305H319.447Z" fill="#454459"/>
<path opacity="0.7" d="M233.8 329.182V330.173H229.115V329.182H233.8ZM230.578 326.83H231.723V336.437C231.723 336.846 231.793 337.168 231.934 337.402C232.074 337.632 232.257 337.796 232.483 337.894C232.709 337.988 232.95 338.035 233.206 338.035C233.355 338.035 233.483 338.026 233.589 338.009C233.696 337.988 233.789 337.967 233.87 337.945L234.113 338.974C234.002 339.017 233.866 339.055 233.704 339.089C233.542 339.128 233.342 339.147 233.103 339.147C232.686 339.147 232.283 339.055 231.895 338.872C231.512 338.689 231.196 338.416 230.949 338.054C230.702 337.692 230.578 337.242 230.578 336.705V326.83ZM240.095 339.205C239.247 339.205 238.497 338.989 237.845 338.559C237.197 338.129 236.69 337.534 236.323 336.776C235.957 336.013 235.774 335.133 235.774 334.136C235.774 333.13 235.957 332.246 236.323 331.483C236.69 330.716 237.197 330.119 237.845 329.693C238.497 329.263 239.247 329.048 240.095 329.048C240.943 329.048 241.69 329.263 242.338 329.693C242.986 330.124 243.493 330.72 243.859 331.483C244.23 332.246 244.416 333.13 244.416 334.136C244.416 335.133 244.232 336.013 243.866 336.776C243.499 337.534 242.99 338.129 242.338 338.559C241.69 338.989 240.943 339.205 240.095 339.205ZM240.095 338.163C240.776 338.163 241.354 337.979 241.827 337.613C242.3 337.246 242.658 336.759 242.901 336.149C243.148 335.54 243.271 334.869 243.271 334.136C243.271 333.403 243.148 332.729 242.901 332.116C242.658 331.502 242.3 331.01 241.827 330.639C241.354 330.268 240.776 330.083 240.095 330.083C239.417 330.083 238.84 330.268 238.362 330.639C237.889 331.01 237.529 331.502 237.282 332.116C237.039 332.729 236.918 333.403 236.918 334.136C236.918 334.869 237.039 335.54 237.282 336.149C237.529 336.759 237.889 337.246 238.362 337.613C238.835 337.979 239.413 338.163 240.095 338.163ZM248.051 332.864V339H246.913V329.182H248.019V330.722H248.121C248.351 330.219 248.709 329.817 249.195 329.514C249.685 329.207 250.29 329.054 251.011 329.054C251.671 329.054 252.251 329.192 252.749 329.469C253.252 329.742 253.642 330.145 253.919 330.678C254.2 331.21 254.341 331.864 254.341 332.64V339H253.203V332.71C253.203 331.905 252.977 331.268 252.525 330.799C252.078 330.33 251.477 330.096 250.723 330.096C250.207 330.096 249.749 330.207 249.349 330.428C248.948 330.65 248.631 330.969 248.396 331.387C248.166 331.8 248.051 332.293 248.051 332.864ZM258.475 332.864V339H257.337V329.182H258.443V330.722H258.545C258.775 330.219 259.133 329.817 259.619 329.514C260.109 329.207 260.714 329.054 261.434 329.054C262.095 329.054 262.674 329.192 263.173 329.469C263.676 329.742 264.066 330.145 264.343 330.678C264.624 331.21 264.765 331.864 264.765 332.64V339H263.627V332.71C263.627 331.905 263.401 331.268 262.949 330.799C262.502 330.33 261.901 330.096 261.147 330.096C260.631 330.096 260.173 330.207 259.772 330.428C259.372 330.65 259.054 330.969 258.82 331.387C258.59 331.8 258.475 332.293 258.475 332.864ZM271.73 339.205C270.814 339.205 270.022 338.991 269.353 338.565C268.684 338.135 268.166 337.54 267.799 336.782C267.437 336.019 267.256 335.141 267.256 334.148C267.256 333.16 267.437 332.282 267.799 331.515C268.166 330.744 268.671 330.141 269.314 329.706C269.962 329.267 270.71 329.048 271.558 329.048C272.09 329.048 272.604 329.146 273.098 329.342C273.593 329.533 274.036 329.83 274.428 330.23C274.824 330.626 275.137 331.127 275.367 331.732C275.598 332.333 275.713 333.045 275.713 333.867V334.43H268.042V333.426H274.549C274.549 332.795 274.421 332.229 274.166 331.726C273.914 331.219 273.563 330.818 273.111 330.524C272.664 330.23 272.146 330.083 271.558 330.083C270.936 330.083 270.388 330.249 269.915 330.582C269.442 330.914 269.071 331.353 268.803 331.898C268.539 332.444 268.404 333.04 268.4 333.688V334.289C268.4 335.069 268.534 335.751 268.803 336.335C269.076 336.914 269.461 337.364 269.96 337.683C270.458 338.003 271.049 338.163 271.73 338.163C272.195 338.163 272.602 338.09 272.951 337.945C273.305 337.8 273.601 337.607 273.84 337.364C274.083 337.116 274.266 336.846 274.389 336.552L275.47 336.903C275.321 337.317 275.076 337.698 274.735 338.048C274.398 338.397 273.976 338.678 273.469 338.891C272.966 339.1 272.387 339.205 271.73 339.205ZM284.816 331.336L283.775 331.63C283.672 331.336 283.527 331.07 283.34 330.831C283.152 330.592 282.907 330.403 282.605 330.262C282.307 330.121 281.936 330.051 281.493 330.051C280.828 330.051 280.282 330.209 279.856 330.524C279.43 330.839 279.217 331.246 279.217 331.745C279.217 332.167 279.362 332.51 279.652 332.774C279.946 333.034 280.397 333.241 281.007 333.394L282.49 333.759C283.312 333.959 283.928 334.276 284.337 334.711C284.75 335.146 284.957 335.691 284.957 336.347C284.957 336.901 284.804 337.393 284.497 337.824C284.19 338.254 283.762 338.593 283.212 338.84C282.667 339.083 282.034 339.205 281.314 339.205C280.355 339.205 279.564 338.989 278.942 338.559C278.32 338.124 277.922 337.498 277.747 336.68L278.84 336.411C278.981 336.995 279.255 337.436 279.665 337.734C280.078 338.033 280.621 338.182 281.294 338.182C282.049 338.182 282.652 338.013 283.103 337.677C283.555 337.336 283.781 336.91 283.781 336.398C283.781 336.002 283.649 335.67 283.385 335.401C283.12 335.129 282.72 334.928 282.183 334.8L280.579 334.417C279.726 334.212 279.096 333.888 278.687 333.445C278.277 333.002 278.073 332.452 278.073 331.796C278.073 331.255 278.22 330.78 278.514 330.371C278.808 329.957 279.213 329.634 279.728 329.399C280.244 329.165 280.832 329.048 281.493 329.048C282.392 329.048 283.11 329.252 283.647 329.661C284.188 330.066 284.578 330.624 284.816 331.336ZM296.327 339.205C295.479 339.205 294.729 338.989 294.077 338.559C293.429 338.129 292.922 337.534 292.556 336.776C292.189 336.013 292.006 335.133 292.006 334.136C292.006 333.13 292.189 332.246 292.556 331.483C292.922 330.716 293.429 330.119 294.077 329.693C294.729 329.263 295.479 329.048 296.327 329.048C297.175 329.048 297.923 329.263 298.571 329.693C299.218 330.124 299.725 330.72 300.092 331.483C300.463 332.246 300.648 333.13 300.648 334.136C300.648 335.133 300.465 336.013 300.098 336.776C299.732 337.534 299.223 338.129 298.571 338.559C297.923 338.989 297.175 339.205 296.327 339.205ZM296.327 338.163C297.009 338.163 297.586 337.979 298.059 337.613C298.532 337.246 298.89 336.759 299.133 336.149C299.38 335.54 299.504 334.869 299.504 334.136C299.504 333.403 299.38 332.729 299.133 332.116C298.89 331.502 298.532 331.01 298.059 330.639C297.586 330.268 297.009 330.083 296.327 330.083C295.649 330.083 295.072 330.268 294.595 330.639C294.122 331.01 293.762 331.502 293.514 332.116C293.272 332.729 293.15 333.403 293.15 334.136C293.15 334.869 293.272 335.54 293.514 336.149C293.762 336.759 294.122 337.246 294.595 337.613C295.068 337.979 295.645 338.163 296.327 338.163ZM307.185 329.182V330.173H302.359V329.182H307.185ZM303.868 339V327.744C303.868 327.215 303.989 326.77 304.232 326.408C304.479 326.045 304.801 325.771 305.198 325.583C305.594 325.396 306.014 325.302 306.457 325.302C306.755 325.302 307.002 325.327 307.198 325.379C307.399 325.425 307.556 325.472 307.671 325.519L307.339 326.516C307.254 326.491 307.149 326.461 307.026 326.427C306.902 326.393 306.747 326.376 306.559 326.376C306.065 326.376 305.683 326.514 305.415 326.791C305.146 327.068 305.012 327.464 305.012 327.98L305.006 339H303.868ZM318.354 339.205C317.476 339.205 316.711 338.985 316.059 338.546C315.411 338.107 314.909 337.506 314.551 336.744C314.193 335.981 314.014 335.112 314.014 334.136C314.014 333.151 314.195 332.276 314.557 331.509C314.924 330.741 315.431 330.141 316.078 329.706C316.726 329.267 317.478 329.048 318.335 329.048C318.991 329.048 319.585 329.175 320.118 329.431C320.651 329.683 321.09 330.038 321.435 330.499C321.784 330.955 322.004 331.487 322.093 332.097H320.943C320.823 331.543 320.536 331.07 320.08 330.678C319.628 330.281 319.053 330.083 318.354 330.083C317.728 330.083 317.174 330.254 316.692 330.594C316.21 330.931 315.833 331.402 315.561 332.007C315.292 332.608 315.158 333.305 315.158 334.097C315.158 334.894 315.29 335.599 315.554 336.213C315.818 336.822 316.189 337.3 316.666 337.645C317.148 337.99 317.71 338.163 318.354 338.163C318.789 338.163 319.185 338.082 319.543 337.92C319.905 337.754 320.208 337.519 320.451 337.217C320.698 336.914 320.864 336.554 320.949 336.136H322.1C322.014 336.729 321.804 337.257 321.467 337.722C321.134 338.182 320.702 338.544 320.169 338.808C319.641 339.072 319.036 339.205 318.354 339.205ZM327.28 339.224C326.688 339.224 326.147 339.109 325.657 338.879C325.167 338.644 324.777 338.308 324.487 337.869C324.197 337.425 324.052 336.888 324.052 336.258C324.052 335.772 324.144 335.363 324.327 335.031C324.511 334.698 324.771 334.425 325.107 334.212C325.444 333.999 325.842 333.831 326.302 333.707C326.763 333.584 327.27 333.488 327.824 333.42C328.373 333.352 328.838 333.292 329.217 333.241C329.601 333.19 329.893 333.109 330.093 332.998C330.293 332.887 330.393 332.708 330.393 332.461V332.231C330.393 331.562 330.193 331.036 329.793 330.652C329.396 330.264 328.825 330.07 328.079 330.07C327.372 330.07 326.795 330.226 326.347 330.537C325.904 330.848 325.593 331.214 325.414 331.636L324.334 331.246C324.555 330.71 324.862 330.281 325.254 329.962C325.646 329.638 326.085 329.406 326.571 329.265C327.057 329.12 327.549 329.048 328.047 329.048C328.422 329.048 328.812 329.097 329.217 329.195C329.626 329.293 330.006 329.463 330.355 329.706C330.704 329.945 330.988 330.279 331.205 330.71C331.422 331.136 331.531 331.677 331.531 332.333V339H330.393V337.447H330.323C330.187 337.737 329.984 338.018 329.716 338.29C329.447 338.563 329.111 338.787 328.706 338.962C328.301 339.136 327.826 339.224 327.28 339.224ZM327.434 338.182C328.039 338.182 328.563 338.048 329.006 337.779C329.449 337.511 329.79 337.155 330.029 336.712C330.272 336.264 330.393 335.772 330.393 335.235V333.816C330.308 333.897 330.165 333.969 329.965 334.033C329.769 334.097 329.541 334.155 329.281 334.206C329.025 334.253 328.77 334.293 328.514 334.327C328.258 334.362 328.028 334.391 327.824 334.417C327.27 334.485 326.797 334.592 326.405 334.737C326.013 334.881 325.712 335.082 325.503 335.337C325.295 335.589 325.19 335.913 325.19 336.309C325.19 336.906 325.403 337.368 325.829 337.696C326.256 338.02 326.79 338.182 327.434 338.182ZM334.558 339V329.182H335.664V330.69H335.747C335.943 330.196 336.284 329.798 336.769 329.495C337.259 329.188 337.813 329.035 338.431 329.035C338.525 329.035 338.63 329.037 338.745 329.041C338.86 329.045 338.956 329.05 339.032 329.054V330.211C338.981 330.202 338.892 330.19 338.764 330.173C338.636 330.156 338.497 330.147 338.348 330.147C337.837 330.147 337.381 330.256 336.98 330.473C336.584 330.686 336.271 330.982 336.041 331.362C335.811 331.741 335.696 332.173 335.696 332.659V339H334.558ZM341.21 339V325.909H342.354V331.055H342.457C342.585 330.761 342.768 330.458 343.006 330.147C343.249 329.836 343.567 329.576 343.959 329.367C344.355 329.154 344.854 329.048 345.455 329.048C346.26 329.048 346.967 329.261 347.577 329.687C348.186 330.109 348.661 330.701 349.002 331.464C349.343 332.222 349.514 333.107 349.514 334.116C349.514 335.131 349.343 336.019 349.002 336.782C348.666 337.545 348.193 338.139 347.583 338.565C346.978 338.991 346.275 339.205 345.474 339.205C344.877 339.205 344.379 339.098 343.978 338.885C343.582 338.672 343.262 338.41 343.019 338.099C342.776 337.783 342.589 337.477 342.457 337.178H342.316V339H341.21ZM342.335 334.097C342.335 334.89 342.453 335.593 342.687 336.207C342.926 336.816 343.266 337.295 343.71 337.645C344.157 337.99 344.698 338.163 345.333 338.163C345.985 338.163 346.537 337.984 346.989 337.626C347.44 337.263 347.783 336.776 348.018 336.162C348.252 335.548 348.369 334.86 348.369 334.097C348.369 333.343 348.252 332.663 348.018 332.058C347.788 331.453 347.447 330.974 346.995 330.62C346.543 330.262 345.989 330.083 345.333 330.083C344.694 330.083 344.151 330.256 343.703 330.601C343.26 330.942 342.921 331.415 342.687 332.02C342.453 332.621 342.335 333.313 342.335 334.097ZM355.829 339.205C354.981 339.205 354.231 338.989 353.579 338.559C352.931 338.129 352.424 337.534 352.058 336.776C351.691 336.013 351.508 335.133 351.508 334.136C351.508 333.13 351.691 332.246 352.058 331.483C352.424 330.716 352.931 330.119 353.579 329.693C354.231 329.263 354.981 329.048 355.829 329.048C356.677 329.048 357.425 329.263 358.073 329.693C358.72 330.124 359.227 330.72 359.594 331.483C359.965 332.246 360.15 333.13 360.15 334.136C360.15 335.133 359.967 336.013 359.6 336.776C359.234 337.534 358.725 338.129 358.073 338.559C357.425 338.989 356.677 339.205 355.829 339.205ZM355.829 338.163C356.511 338.163 357.088 337.979 357.561 337.613C358.034 337.246 358.392 336.759 358.635 336.149C358.882 335.54 359.006 334.869 359.006 334.136C359.006 333.403 358.882 332.729 358.635 332.116C358.392 331.502 358.034 331.01 357.561 330.639C357.088 330.268 356.511 330.083 355.829 330.083C355.151 330.083 354.574 330.268 354.097 330.639C353.624 331.01 353.264 331.502 353.016 332.116C352.774 332.729 352.652 333.403 352.652 334.136C352.652 334.869 352.774 335.54 353.016 336.149C353.264 336.759 353.624 337.246 354.097 337.613C354.57 337.979 355.147 338.163 355.829 338.163ZM363.785 332.864V339H362.648V329.182H363.753V330.722H363.856C364.086 330.219 364.444 329.817 364.93 329.514C365.42 329.207 366.025 329.054 366.745 329.054C367.405 329.054 367.985 329.192 368.484 329.469C368.986 329.742 369.376 330.145 369.653 330.678C369.935 331.21 370.075 331.864 370.075 332.64V339H368.937V332.71C368.937 331.905 368.712 331.268 368.26 330.799C367.812 330.33 367.212 330.096 366.457 330.096C365.942 330.096 365.484 330.207 365.083 330.428C364.682 330.65 364.365 330.969 364.131 331.387C363.9 331.8 363.785 332.293 363.785 332.864Z" fill="#454459"/>
<defs>
<filter id="filter0_d_293_641" x="140" y="145" width="320" height="320" filterUnits="userSpaceOnUse" color-interpolation-filters="sRGB">
<feFlood flood-opacity="0" result="BackgroundImageFix"/>
<feColorMatrix in="SourceAlpha" type="matrix" values="0 0 0 0 0 0 0 0 0 0 0 0 0 0 0 0 0 0 127 0" result="hardAlpha"/>
<feOffset dy="5"/>
<feGaussianBlur stdDeviation="12.5"/>
<feColorMatrix type="matrix" values="0 0 0 0 0 0 0 0 0 0 0 0 0 0 0 0 0 0 0.1 0"/>
<feBlend mode="normal" in2="BackgroundImageFix" result="effect1_dropShadow_293_641"/>
<feBlend mode="normal" in="SourceGraphic" in2="effect1_dropShadow_293_641" result="shape"/>
</filter>
<linearGradient id="paint0_linear_293_641" x1="300" y1="102" x2="300" y2="498" gradientUnits="userSpaceOnUse">
<stop stop-color="#E4FF7A"/>
<stop offset="1" stop-color="#4FBAF0"/>
</linearGradient>
<linearGradient id="paint1_linear_293_641" x1="300" y1="118" x2="300" y2="482" gradientUnits="userSpaceOnUse">
<stop stop-color="#FE6C6C"/>
<stop offset="1" stop-color="#FE464B"/>
</linearGradient>
<linearGradient id="paint2_linear_293_641" x1="300" y1="84" x2="300" y2="516" gradientUnits="userSpaceOnUse">
<stop stop-color="#FD95D3"/>
<stop offset="1" stop-color="#17B657"/>
</linearGradient>
<linearGradient id="paint3_linear_293_641" x1="300" y1="102" x2="300" y2="498" gradientUnits="userSpaceOnUse">
<stop stop-color="#99FFA3"/>
<stop offset="1" stop-color="#68EE76"/>
</linearGradient>
<linearGradient id="paint4_linear_293_641" x1="300" y1="75" x2="300" y2="525" gradientUnits="userSpaceOnUse">
<stop stop-color="#FF7272"/>
<stop offset="1" stop-color="#FEBD38"/>
</linearGradient>
</defs>
</svg>
