<svg width="123" height="28" viewBox="0 0 123 28" fill="none" xmlns="http://www.w3.org/2000/svg">
<path d="M0.96 15.64C0.96 13.4 1.408 11.4053 2.304 9.656C3.22133 7.90667 4.52267 6.552 6.208 5.592C7.89333 4.61067 9.87733 4.12 12.16 4.12C14.1227 4.12 15.872 4.49333 17.408 5.24C18.9653 5.96533 20.224 7 21.184 8.344C22.1653 9.688 22.816 11.256 23.136 13.048H15.648C15.3067 12.3013 14.816 11.7253 14.176 11.32C13.5573 10.8933 12.8427 10.68 12.032 10.68C10.8373 10.68 9.888 11.128 9.184 12.024C8.50133 12.92 8.16 14.1253 8.16 15.64C8.16 17.1547 8.50133 18.36 9.184 19.256C9.888 20.152 10.8373 20.6 12.032 20.6C12.8427 20.6 13.5573 20.3973 14.176 19.992C14.816 19.5653 15.3067 18.9787 15.648 18.232H23.136C22.816 20.024 22.1653 21.592 21.184 22.936C20.224 24.28 18.9653 25.3253 17.408 26.072C15.872 26.7973 14.1227 27.16 12.16 27.16C9.87733 27.16 7.89333 26.68 6.208 25.72C4.52267 24.7387 3.22133 23.3733 2.304 21.624C1.408 19.8747 0.96 17.88 0.96 15.64ZM32.7978 3.32V27H25.6938V3.32H32.7978ZM39.5903 7.512C38.3529 7.512 37.3609 7.18133 36.6143 6.52C35.8676 5.85867 35.4943 5.02667 35.4943 4.024C35.4943 3 35.8676 2.15733 36.6143 1.496C37.3609 0.813332 38.3529 0.471998 39.5903 0.471998C40.8063 0.471998 41.7876 0.813332 42.5343 1.496C43.2809 2.15733 43.6543 3 43.6543 4.024C43.6543 5.02667 43.2809 5.85867 42.5343 6.52C41.7876 7.18133 40.8063 7.512 39.5903 7.512ZM43.1103 8.952V27H36.0063V8.952H43.1103ZM70.4148 8.824C72.7188 8.824 74.5001 9.51733 75.7588 10.904C77.0388 12.2907 77.6788 14.168 77.6788 16.536V27H70.6068V17.432C70.6068 16.664 70.3721 16.0667 69.9028 15.64C69.4548 15.192 68.8468 14.968 68.0788 14.968C67.2894 14.968 66.6708 15.192 66.2228 15.64C65.7748 16.0667 65.5508 16.664 65.5508 17.432V27H58.4788V17.432C58.4788 16.664 58.2441 16.0667 57.7748 15.64C57.3268 15.192 56.7188 14.968 55.9508 14.968C55.1614 14.968 54.5428 15.192 54.0948 15.64C53.6468 16.0667 53.4228 16.664 53.4228 17.432V27H46.3188V8.952H53.4228V11.384C53.9348 10.616 54.6281 9.99733 55.5028 9.528C56.3988 9.05867 57.4441 8.824 58.6388 8.824C59.9401 8.824 61.0921 9.112 62.0948 9.688C63.0974 10.2427 63.8974 11.032 64.4948 12.056C65.1561 11.1173 65.9988 10.3493 67.0228 9.752C68.0468 9.13333 69.1774 8.824 70.4148 8.824ZM79.7963 17.976C79.7963 16.0773 80.1163 14.4347 80.7563 13.048C81.4176 11.64 82.3136 10.5733 83.4443 9.848C84.5749 9.10133 85.8443 8.728 87.2523 8.728C88.4256 8.728 89.4389 8.97333 90.2923 9.464C91.1456 9.93333 91.7963 10.584 92.2443 11.416V8.952H99.3163V27H92.2443V24.536C91.7963 25.368 91.1456 26.0293 90.2923 26.52C89.4389 26.9893 88.4256 27.224 87.2523 27.224C85.8443 27.224 84.5749 26.8613 83.4443 26.136C82.3136 25.3893 81.4176 24.3227 80.7563 22.936C80.1163 21.528 79.7963 19.8747 79.7963 17.976ZM92.2443 17.976C92.2443 17.016 91.9989 16.2693 91.5083 15.736C91.0176 15.2027 90.3883 14.936 89.6203 14.936C88.8523 14.936 88.2229 15.2027 87.7323 15.736C87.2416 16.2693 86.9963 17.016 86.9963 17.976C86.9963 18.936 87.2416 19.6827 87.7323 20.216C88.2229 20.7493 88.8523 21.016 89.6203 21.016C90.3883 21.016 91.0176 20.7493 91.5083 20.216C91.9989 19.6827 92.2443 18.936 92.2443 17.976ZM114.346 27L111.306 22.936L109.034 27H101.226L107.274 17.496L100.906 8.952H108.842L111.882 13.048L114.186 8.952H121.994L115.754 18.232L122.282 27H114.346Z" fill="url(#paint0_linear_293_692)"/>
<defs>
<linearGradient id="paint0_linear_293_692" x1="-5" y1="40" x2="145.5" y2="36.5" gradientUnits="userSpaceOnUse">
<stop stop-color="#85D084"/>
<stop offset="0.984375" stop-color="#FFC121"/>
</linearGradient>
</defs>
</svg>
